<?xml version="1.0" encoding="UTF-8"?>
<svg width="103px" height="28px" viewBox="0 0 103 28" version="1.1" xmlns="http://www.w3.org/2000/svg" xmlns:xlink="http://www.w3.org/1999/xlink">
    <!-- Generator: Sketch 51.3 (57544) - http://www.bohemiancoding.com/sketch -->
    <title>logo</title>
    <desc>Created with Sketch.</desc>
    <defs></defs>
    <g id="Page-1" stroke="none" stroke-width="1" fill="none" fill-rule="evenodd">
        <g id="logo" fill="#FFFFFF">
            <g id="fuel" fill-rule="nonzero">
                <path d="M22.8314896,3.67089127 L20.5314788,1.33754426 C20.3068522,1.1096619 19.9429861,1.1096619 19.7184134,1.33754426 C19.4937867,1.56542663 19.4937867,1.93456653 19.7184134,2.16239421 L21.6118645,4.0832889 L19.7184134,6.00418359 C19.6106012,6.11355837 19.5499569,6.26165183 19.5499569,6.41663591 L19.5499569,8.16663249 C19.5499569,9.45353622 20.5815037,10.4999795 21.8499677,10.4999795 L21.8499677,20.4166086 C21.8499677,20.7384439 21.5922427,20.999959 21.2749515,20.999959 C20.9577142,20.999959 20.6999353,20.7384986 20.6999353,20.4166086 L20.6999353,19.2499624 C20.6999353,18.2849487 19.9261674,17.4999658 18.9749407,17.4999658 L18.3999784,17.4999658 L18.3999784,2.33334701 C18.3999784,1.04644327 17.3684856,0 16.0999677,0 L4.60002156,0 C3.33155756,0 2.30001078,1.04644327 2.30001078,2.33334701 L2.30001078,23.333306 C1.03154678,23.333306 0,24.3797493 0,25.666653 L0,27.4166496 C0,27.7390864 0.257185915,28 0.575016172,28 L20.124973,28 C20.4428033,28 20.6999892,27.7390864 20.6999892,27.4166496 L20.6999892,25.666653 C20.6999892,24.3798039 19.6684963,23.333306 18.3999784,23.333306 L18.3999784,18.6666667 L18.9749946,18.6666667 C19.2922319,18.6666667 19.5500108,18.9281271 19.5500108,19.2500171 L19.5500108,20.4166632 C19.5500108,21.381677 20.3237787,22.1666598 21.2750054,22.1666598 C22.2262321,22.1666598 23,21.381677 23,20.4166632 L23,4.08334359 C22.9999461,3.92835951 22.9393018,3.78026605 22.8314896,3.67089127 Z M16.0999677,9.92745717 C16.0999677,10.249894 15.8427817,10.5108076 15.5249515,10.5108076 L5.17498383,10.5108076 C4.85715357,10.5108076 4.59996766,10.249894 4.59996766,9.92745717 L4.59996766,2.91664274 C4.59996766,2.59420587 4.85715357,2.33329232 5.17498383,2.33329232 L15.5249515,2.33329232 C15.8427817,2.33329232 16.0999677,2.59420587 16.0999677,2.91664274 L16.0999677,9.92745717 Z" id="Shape"></path>
            </g>
            <text id="Fuel.AI" font-family="LucidaGrande, Lucida Grande" font-size="24" font-weight="normal">
                <tspan x="30" y="26">Fuel</tspan>
                <tspan x="78.0703125" y="26" font-family="DiwanThuluth, Diwan Thuluth">.</tspan>
                <tspan x="81.234375" y="26">AI</tspan>
            </text>
        </g>
    </g>
</svg>